<svg fill="#000000" xmlns="http://www.w3.org/2000/svg"  viewBox="0 0 50 50" width="50px" height="50px"><path d="M 15.5 2.5 C 12.375 2.5 9.808594 4.914063 9.53125 7.96875 C 9.515625 8.109375 9.503906 8.234375 9.5 8.375 C 9.5 8.414063 9.5 8.460938 9.5 8.5 C 9.5 8.515625 9.5 8.515625 9.5 8.53125 C 9.5 8.699219 9.515625 8.859375 9.53125 9.03125 C 9.535156 9.074219 9.527344 9.117188 9.53125 9.15625 C 9.550781 9.316406 9.59375 9.496094 9.625 9.65625 C 9.636719 9.714844 9.644531 9.753906 9.65625 9.8125 C 9.691406 9.960938 9.734375 10.128906 9.78125 10.28125 C 9.789063 10.304688 9.773438 10.320313 9.78125 10.34375 C 9.917969 10.769531 10.101563 11.195313 10.34375 11.625 C 10.457031 11.808594 10.589844 11.976563 10.75 12.15625 C 11.667969 13.339844 13.046875 14.167969 14.59375 14.40625 C 14.621094 14.410156 14.628906 14.433594 14.65625 14.4375 C 14.722656 14.445313 14.808594 14.460938 14.875 14.46875 C 14.886719 14.46875 14.890625 14.464844 14.90625 14.46875 C 16.207031 14.625 17.339844 14.554688 18 15.6875 L 18.3125 16.3125 C 19.113281 17.710938 18.242188 18.851563 17.34375 20.25 C 17.324219 20.28125 17.332031 20.34375 17.3125 20.375 C 16.492188 21.730469 16 23.300781 16 25 C 16 26.695313 16.464844 28.269531 17.28125 29.625 C 17.324219 29.707031 17.359375 29.828125 17.40625 29.90625 C 18.253906 31.410156 19.746094 32.574219 21.46875 33.28125 C 21.625 33.347656 21.777344 33.410156 21.9375 33.46875 C 22.023438 33.496094 22.101563 33.503906 22.1875 33.53125 C 22.652344 33.683594 23.128906 33.800781 23.625 33.875 C 23.769531 33.898438 23.917969 33.921875 24.0625 33.9375 C 24.078125 33.941406 24.109375 33.96875 24.125 33.96875 C 26.203125 34.203125 28.351563 33.777344 30.09375 32.5 C 34.1875 29.503906 34.894531 24.664063 33.09375 21.0625 C 33.070313 21.015625 33.054688 20.984375 33.03125 20.9375 C 31.542969 18.015625 28.503906 16 25 16 C 24.976563 16 24.960938 16 24.9375 16 C 24.925781 16 24.917969 16 24.90625 16 C 23.207031 16 21.585938 16.210938 20.6875 14.8125 L 20.40625 14.1875 C 19.878906 13.28125 20.292969 12.339844 20.75 11.375 C 20.898438 11.105469 21.019531 10.851563 21.125 10.5625 C 21.140625 10.527344 21.175781 10.472656 21.1875 10.4375 C 21.195313 10.417969 21.179688 10.394531 21.1875 10.375 C 21.382813 9.785156 21.5 9.15625 21.5 8.5 C 21.5 5.191406 18.808594 2.5 15.5 2.5 Z M 34.5 2.5 C 31.191406 2.5 28.5 5.191406 28.5 8.5 C 28.5 11.808594 31.191406 14.5 34.5 14.5 C 37.808594 14.5 40.5 11.808594 40.5 8.5 C 40.5 5.191406 37.808594 2.5 34.5 2.5 Z M 6 19 C 2.691406 19 0 21.691406 0 25 C 0 28.308594 2.691406 31 6 31 C 9.308594 31 12 28.308594 12 25 C 12 21.691406 9.308594 19 6 19 Z M 44 19 C 40.691406 19 38 21.691406 38 25 C 38 28.308594 40.691406 31 44 31 C 47.308594 31 50 28.308594 50 25 C 50 21.691406 47.308594 19 44 19 Z M 15.5 35.5 C 12.191406 35.5 9.5 38.191406 9.5 41.5 C 9.5 44.808594 12.191406 47.5 15.5 47.5 C 18.808594 47.5 21.5 44.808594 21.5 41.5 C 21.5 38.191406 18.808594 35.5 15.5 35.5 Z M 34.5 35.5 C 31.191406 35.5 28.5 38.191406 28.5 41.5 C 28.5 44.808594 31.191406 47.5 34.5 47.5 C 37.808594 47.5 40.5 44.808594 40.5 41.5 C 40.5 38.191406 37.808594 35.5 34.5 35.5 Z"/></svg>